<svg xmlns="http://www.w3.org/2000/svg" viewBox="0 0 100 100"><defs><style>.a{fill:#180906;}</style></defs><path class="a" d="M88.25,71.85a3.1,3.1,0,0,1-3.88,1.06L59.8,63.05a2.18,2.18,0,0,0-3.12,1.83L53.13,91.57a3.13,3.13,0,0,1-6.24,0L43.34,64.88a2.19,2.19,0,0,0-3.13-1.83L15.64,72.91a3.09,3.09,0,0,1-3.87-1.06,3.39,3.39,0,0,1,1.18-4L33.8,51.48a2.21,2.21,0,0,0,0-3.64L13,31.46c-1.28-1-1.81-2.7-1.19-3.76s2.37-1.44,3.88-.84l24.79,9.87a2.2,2.2,0,0,0,3.15-1.83L47.31,8.44c.23-1.61,1.44-2.93,2.7-2.93s2.46,1.32,2.69,2.93L56.43,34.9a2.2,2.2,0,0,0,3.15,1.83l24.79-9.87c1.51-.6,3.25-.23,3.88.84s.09,2.75-1.19,3.76L66.21,47.84a2.22,2.22,0,0,0,0,3.64L87.06,67.87A3.41,3.41,0,0,1,88.25,71.85Z"/></svg>