<svg xmlns="http://www.w3.org/2000/svg" viewBox="0 0 100 100"><defs><style>.a{fill:#f6ca18;}</style></defs><path class="a" d="M37.54,50.64,13.12,26c-1.78-1.27-2.54-3.31-2.54-6.1,0-2.29,1.27-4.58,3.31-6.62a8.42,8.42,0,0,1,6.1-2.8c1.78,0,4.32,1.53,7.89,4.58s7.88,7.38,13,12.72,8.14,8.9,9.66,10.17L75.18,13a7.32,7.32,0,0,1,5.35-2.29,9.61,9.61,0,0,1,6.36,2.8,7.87,7.87,0,0,1,3,5.85A8.42,8.42,0,0,1,87.14,25L62.47,49.88,87.65,75.31a7.52,7.52,0,0,1,2.29,5.6,10.55,10.55,0,0,1-9.67,9.67c-1.78,0-3.56-.77-5.59-2.55L49.49,62.6,24.57,87.52A7.6,7.6,0,0,1,19,90.07,7.93,7.93,0,0,1,12.87,87c-1.78-2-2.8-3.81-2.8-5.85,0-1.78.76-3.56,2.54-5.59Z"/></svg>