<svg xmlns="http://www.w3.org/2000/svg" viewBox="0 0 100 100"><defs><style>.a{fill:#f6ca18;fill-rule:evenodd;}</style></defs><path class="a" d="M50,6.36A45.32,45.32,0,0,0,35.83,94.59c2.23.45,3.05-1,3.05-2.18,0-1-.07-4.65-.07-8.39-12.5,2.7-15.11-5.4-15.11-5.4-2-5.25-5-6.6-5-6.6-4.1-2.77.29-2.77.29-2.77,4.54.3,6.93,4.65,6.93,4.65,4,6.89,10.49,4.94,13.09,3.74a9.63,9.63,0,0,1,2.83-6.07c-10-1-20.46-4.94-20.46-22.33A17.73,17.73,0,0,1,26,37.09c-.45-1.12-2-5.77.45-12,0,0,3.79-1.2,12.35,4.65a42.83,42.83,0,0,1,22.47,0c8.55-5.85,12.35-4.65,12.35-4.65a16.48,16.48,0,0,1,.45,12,17.41,17.41,0,0,1,4.61,12.15c0,17.39-10.49,21.21-20.54,22.33C59.79,73,61.2,75.7,61.2,80c0,6.07-.07,10.94-.07,12.44,0,1.2.82,2.63,3.05,2.18A45.32,45.32,0,0,0,50,6.36Z"/></svg>